<svg width="18" height="18" viewBox="0 0 18 18" fill="none" xmlns="http://www.w3.org/2000/svg">
<path d="M14.0627 9.7875L9.22519 14.625C8.55019 15.3 7.7627 15.75 6.7502 15.75C5.7377 15.75 4.9502 15.3 4.2752 14.625C2.9252 13.275 2.9252 11.025 4.2752 9.675L11.0252 2.925C11.4752 2.475 12.0377 2.25 12.6002 2.25C13.1627 2.25 13.7252 2.475 14.1752 2.925C14.9627 3.7125 14.9627 5.175 14.1752 5.9625L7.4252 12.7125C7.3127 12.825 7.0877 12.9375 6.8627 12.9375C6.6377 12.9375 6.41269 12.825 6.3002 12.7125C5.9627 12.375 5.9627 11.925 6.3002 11.5875L13.0502 4.8375C13.2752 4.6125 13.2752 4.275 13.0502 4.05C12.9377 3.9375 12.8252 3.825 12.6002 3.825C12.4877 3.825 12.2627 3.9375 12.1502 4.05L5.4002 10.8C5.0627 11.1375 4.8377 11.7 4.8377 12.15C4.8377 12.7125 5.0627 13.1625 5.4002 13.5C5.7377 13.8375 6.3002 14.0625 6.7502 14.0625C7.3127 14.0625 7.76269 13.8375 8.10019 13.5L14.8502 6.75C15.5252 6.075 15.8627 5.2875 15.8627 4.3875C15.8627 3.4875 15.5252 2.7 14.8502 2.025C14.2877 1.4625 13.5002 1.125 12.6002 1.125C11.7002 1.125 10.9127 1.4625 10.2377 2.1375L3.4877 8.8875C2.5877 9.7875 2.1377 10.9125 2.1377 12.15C2.1377 13.3875 2.5877 14.625 3.4877 15.4125C4.3877 16.425 5.5127 16.875 6.7502 16.875C7.9877 16.875 9.22519 16.425 10.0127 15.525L14.8502 10.6875C15.0752 10.4625 15.0752 10.125 14.8502 9.9C14.6252 9.5625 14.2877 9.675 14.0627 9.7875Z" fill="#434343"/>
</svg>
